<svg width="1340" height="520" viewBox="0 0 1340 520" fill="none" xmlns="http://www.w3.org/2000/svg">
<path d="M165.462 211.659L165.462 211.661C168.771 223.872 168.148 236.778 163.694 248.369C159.24 259.958 151.208 269.579 140.854 275.739C130.5 281.899 118.4 284.255 106.437 282.441C94.472 280.627 83.3102 274.742 74.6931 265.695L74.6914 265.694L-19.6256 167.442L-8.78997 19.3621L150.945 185.909L150.947 185.911C157.857 193.048 162.868 201.936 165.462 211.659Z" stroke="#99A5AE" stroke-width="1.27988"/>
<path d="M-19.0608 161.915L-19.0602 161.915L290.381 223.036L290.381 223.036C303.653 225.674 317.519 224.895 330.587 220.775C346.965 215.544 361.244 205.329 371.216 191.715C381.188 178.101 386.296 161.85 385.758 145.478C385.22 129.105 379.067 113.518 368.247 101.124C357.428 88.7309 342.542 80.2195 325.888 76.9144L16.4484 15.7933L-19.0608 161.915ZM-19.0608 161.915C-29.0018 159.96 -38.3844 156.134 -46.6734 150.658C-54.9623 145.181 -61.9957 138.161 -67.3732 129.998C-72.7507 121.836 -76.3678 112.69 -78.0187 103.083C-79.6696 93.4757 -79.3221 83.5937 -76.9947 74.0006C-74.6672 64.4074 -70.4051 55.2903 -64.4501 47.1708C-58.495 39.0512 -50.9639 32.0889 -42.2858 26.6819C-33.6076 21.275 -23.9535 17.5302 -13.8751 15.662C-3.79686 13.7937 6.50697 13.8387 16.4479 15.7932L-19.0608 161.915Z" stroke="#99A5AE" stroke-width="1.27988"/>
<path d="M1155.73 168.124L1155.73 168.122C1149.49 157.084 1146.89 144.395 1148.35 132.033C1149.8 119.672 1155.21 108.334 1163.74 99.7805C1172.27 91.2278 1183.45 85.9365 1195.52 84.7311C1207.59 83.5256 1219.89 86.4739 1230.51 93.1233L1230.51 93.1243L1346.25 165.019L1372.46 311.547L1176.22 189.533L1176.21 189.531C1167.73 184.313 1160.66 176.924 1155.73 168.124Z" stroke="#99A5AE"/>
<path d="M1346.94 170.461L1346.94 170.461L1032 187.799L1032 187.799C1018.46 188.528 1005.2 192.72 993.535 199.958C978.935 209.094 967.608 222.548 961.303 238.234C954.998 253.919 954.067 270.961 958.648 286.723C963.229 302.484 973.067 316.091 986.642 325.441C1000.22 334.79 1016.78 339.362 1033.76 338.442C1033.76 338.442 1033.76 338.442 1033.76 338.442L1348.7 321.104L1346.94 170.461ZM1346.94 170.461C1357.07 169.894 1367.13 171.282 1376.53 174.543C1385.94 177.805 1394.51 182.877 1401.75 189.468C1408.99 196.059 1414.77 204.041 1418.76 212.959C1422.74 221.877 1424.85 231.556 1424.97 241.446C1425.09 251.335 1423.21 261.242 1419.45 270.599C1415.68 279.956 1410.09 288.581 1403.01 295.979C1395.93 303.378 1387.49 309.405 1378.17 313.716C1368.85 318.027 1358.84 320.537 1348.7 321.104L1346.94 170.461Z" stroke="#99A5AE"/>
</svg>
