<svg width="22" height="21" viewBox="0 0 22 21" fill="none" xmlns="http://www.w3.org/2000/svg">
<g id="Group 1000004341">
<circle id="Ellipse 1888" cx="11" cy="10.5" r="10.5" fill="white"/>
<path id="Twitter" d="M10.9261 8.43468L10.9504 8.83067L10.5465 8.78233C9.0769 8.5963 7.79309 7.96593 6.703 6.90782L6.17017 6.38292L6.03284 6.77013C5.74219 7.63536 5.92786 8.54796 6.53357 9.16173C6.85645 9.50108 6.78381 9.54991 6.22668 9.34776C6.03284 9.28282 5.86328 9.23448 5.84717 9.2589C5.79065 9.31554 5.9845 10.0504 6.13794 10.3414C6.34778 10.7452 6.77576 11.1412 7.24402 11.3756L7.63977 11.5611L7.17151 11.569C6.71924 11.569 6.703 11.5777 6.75159 11.7467C6.91296 12.2721 7.5509 12.8297 8.26147 13.0719L8.76208 13.2413L8.32617 13.5006C7.68018 13.8717 6.92102 14.0821 6.16211 14.0983C5.79871 14.1061 5.5 14.1383 5.5 14.1632C5.5 14.2438 6.48499 14.6959 7.05835 14.8736C8.77832 15.399 10.8212 15.1725 12.3553 14.276C13.4454 13.6373 14.5354 12.3692 15.0442 11.1412C15.3187 10.4869 15.5933 9.29112 15.5933 8.71788C15.5933 8.34581 15.6176 8.29747 16.0697 7.85313C16.3361 7.59435 16.5864 7.31212 16.6349 7.23106C16.7156 7.07774 16.7075 7.07774 16.2957 7.21495C15.6094 7.45714 15.5125 7.42491 15.8517 7.06163C16.1019 6.80284 16.4006 6.33409 16.4006 6.19688C16.4006 6.17247 16.2797 6.213 16.1423 6.28526C15.9969 6.36681 15.6741 6.4879 15.4316 6.56065L14.9956 6.69737L14.6001 6.43126C14.3821 6.28526 14.0753 6.12413 13.9137 6.07579C13.502 5.96251 12.8721 5.97862 12.5006 6.10802C11.4913 6.4713 10.8534 7.4088 10.9261 8.43468Z" fill="#1E3747"/>
</g>
</svg>
